<svg width="66" height="66" viewBox="0 0 66 66" fill="none" xmlns="http://www.w3.org/2000/svg">
<g filter="url(#filter0_d_2_6)">
<path fill-rule="evenodd" clip-rule="evenodd" d="M6.9 58H62V2.41667H59.1V55.5833H6.9V58ZM56.2 0H4V53.1667H56.2V0ZM53.3 2.41667H6.9V50.75H53.3V2.41667ZM47.5 41.0833H12.7V43.5H47.5V41.0833ZM47.5 33.8333H12.7V36.25H47.5V33.8333ZM47.5 26.5833H12.7V29H47.5V26.5833ZM26.1908 17.2478L28.94 17.9728C28.5195 19.2512 27.8177 20.2009 26.8375 20.8196C25.8573 21.4407 24.6132 21.75 23.1052 21.75C21.2405 21.75 19.7093 21.2183 18.5087 20.1574C17.3081 19.0965 16.7078 17.6441 16.7078 15.8026C16.7078 13.8548 17.311 12.3419 18.5174 11.2641C19.7238 10.1862 21.3101 9.64733 23.2792 9.64733C24.996 9.64733 26.3909 10.0703 27.4639 10.9161C28.1048 11.4163 28.5833 12.1365 28.9023 13.0718L26.0951 13.63C25.9298 13.0234 25.5818 12.5449 25.0569 12.1945C24.5291 11.8417 23.8882 11.6677 23.1342 11.6677C22.0931 11.6677 21.2492 11.9794 20.5996 12.6005C19.9529 13.224 19.6281 14.2318 19.6281 15.6262C19.6281 17.1076 19.9471 18.1613 20.588 18.7872C21.226 19.4155 22.0554 19.7297 23.0762 19.7297C23.8302 19.7297 24.4798 19.5315 25.0221 19.1303C25.5644 18.7316 25.9559 18.1033 26.1908 17.2478ZM34.9575 21.5494L29.9376 9.84792H33.0116L36.567 18.5093L40.0064 9.84792H43.0137L37.9851 21.5494H34.9575Z" fill="#39C1B4"/>
<path d="M26.5211 17.8519L28.2781 18.3153C27.8834 19.2443 27.3106 19.9297 26.5706 20.3968L26.5699 20.3972C25.6907 20.9543 24.5467 21.25 23.1052 21.25C21.3416 21.25 19.9345 20.7501 18.8398 19.7827C17.7632 18.8314 17.2078 17.5246 17.2078 15.8026C17.2078 13.9655 17.7718 12.6007 18.8505 11.6369C19.9464 10.6578 21.4051 10.1473 23.2792 10.1473C24.9131 10.1473 26.1901 10.5487 27.1544 11.3088L27.1562 11.3102C27.5845 11.6445 27.9403 12.1023 28.2161 12.6984L26.421 13.0554C26.1912 12.5346 25.8254 12.1065 25.3348 11.7788L26.5211 17.8519ZM26.5211 17.8519C26.2558 18.5621 25.8605 19.1345 25.3183 19.5332C24.679 20.0056 23.922 20.2297 23.0762 20.2297C21.9444 20.2297 20.9827 19.8772 20.2379 19.1442C19.4541 18.3781 19.1281 17.1574 19.1281 15.6262C19.1281 14.1687 19.4659 12.999 20.2526 12.2406L20.2541 12.2391C21.011 11.5154 21.9856 11.1677 23.1342 11.1677C23.9668 11.1677 24.7092 11.3607 25.3345 11.7787L26.5211 17.8519ZM59.1 56.0833H59.6V55.5833V2.91667H61.5V57.5H7.4V56.0833H59.1ZM53.8 2.41667V1.91667H53.3H6.9H6.4V2.41667V50.75V51.25H6.9H53.3H53.8V50.75V2.41667ZM37.0317 18.6938L40.3458 10.3479H42.2546L37.6558 21.0494H35.2871L30.6962 10.3479H32.6764L36.1045 18.6991L36.5747 19.8447L37.0317 18.6938ZM4.5 0.5H55.7V52.6667H4.5V0.5ZM13.2 43V41.5833H47V43H13.2ZM13.2 35.75V34.3333H47V35.75H13.2ZM13.2 28.5V27.0833H47V28.5H13.2Z" stroke="#39C1B4"/>
</g>
<defs>
<filter id="filter0_d_2_6" x="0" y="0" width="66" height="66" filterUnits="userSpaceOnUse" color-interpolation-filters="sRGB">
<feFlood flood-opacity="0" result="BackgroundImageFix"/>
<feColorMatrix in="SourceAlpha" type="matrix" values="0 0 0 0 0 0 0 0 0 0 0 0 0 0 0 0 0 0 127 0" result="hardAlpha"/>
<feOffset dy="4"/>
<feGaussianBlur stdDeviation="2"/>
<feComposite in2="hardAlpha" operator="out"/>
<feColorMatrix type="matrix" values="0 0 0 0 0 0 0 0 0 0 0 0 0 0 0 0 0 0 0.25 0"/>
<feBlend mode="normal" in2="BackgroundImageFix" result="effect1_dropShadow_2_6"/>
<feBlend mode="normal" in="SourceGraphic" in2="effect1_dropShadow_2_6" result="shape"/>
</filter>
</defs>
</svg>
