<?xml version="1.0" encoding="utf-8"?>
<svg xmlns="http://www.w3.org/2000/svg" viewBox="203.711 136.71 58 58" width="58px" height="58px"><g id="object-0" transform="matrix(0.9999999999999999, 0, 0, 0.9999999999999999, 0, -7.105427357601002e-15)"><path d="M 254.461 136.71 L 210.961 136.71 C 206.957 136.71 203.711 139.956 203.711 143.96 L 203.711 187.46 C 203.711 191.464 206.957 194.71 210.961 194.71 L 254.461 194.71 C 258.465 194.71 261.711 191.464 261.711 187.46 L 261.711 143.96 C 261.711 139.956 258.465 136.71 254.461 136.71 Z" fill="#39C1B4"/><path fill-rule="evenodd" clip-rule="evenodd" d="M 217.078 143.96 L 238.336 143.96 L 238.336 153.062 C 238.336 154.063 239.148 154.875 240.148 154.875 L 249.25 154.875 L 249.25 186.554 C 249.25 187.055 248.845 187.46 248.344 187.46 L 217.078 187.46 C 216.578 187.46 216.172 187.055 216.172 186.554 L 216.172 144.866 C 216.172 144.366 216.578 143.96 217.078 143.96 Z M 220.942 171.817 L 244.48 171.817 L 244.48 173.176 L 220.942 173.176 L 220.942 171.817 Z M 220.942 167.152 L 244.48 167.152 L 244.48 168.512 L 220.942 168.512 L 220.942 167.152 Z M 220.942 176.482 L 244.48 176.482 L 244.48 177.841 L 220.942 177.841 L 220.942 176.482 Z M 225.938 159.904 C 225.34 159.903 224.619 159.659 224.071 159.13 C 223.633 158.707 223.302 158.107 223.224 157.31 C 223.219 157.251 223.214 157.149 223.211 157.039 C 223.206 156.891 223.204 156.712 223.203 156.626 C 223.195 155.598 223.527 154.928 224.051 154.502 C 224.561 154.088 225.229 153.936 225.928 153.922 C 225.95 153.922 225.971 153.921 225.992 153.923 C 226.675 153.942 227.326 154.097 227.825 154.502 C 228.349 154.928 228.681 155.598 228.673 156.626 C 228.672 156.712 228.669 156.891 228.665 157.039 C 228.661 157.149 228.657 157.251 228.651 157.31 C 228.572 158.13 228.267 158.73 227.831 159.15 C 227.323 159.641 226.651 159.869 225.961 159.902 C 225.953 159.902 225.946 159.904 225.938 159.904 Z M 223.11 158.645 C 222.537 158.968 222.044 159.448 221.673 160.034 C 221.214 160.761 220.942 161.652 220.942 162.609 L 220.942 162.682 C 220.942 162.996 221.057 163.286 221.242 163.5 C 221.443 163.733 221.726 163.878 222.041 163.878 L 229.834 163.878 C 230.15 163.878 230.433 163.733 230.634 163.5 C 230.818 163.286 230.933 162.996 230.933 162.682 L 230.933 162.609 C 230.933 161.659 230.666 160.774 230.214 160.051 C 229.846 159.463 229.355 158.981 228.784 158.655 C 228.632 158.965 228.43 159.251 228.17 159.501 C 226.618 160.999 224.079 160.521 223.11 158.645 Z M 240.148 153.969 C 239.648 153.969 239.242 153.563 239.242 153.062 L 239.242 144.874 C 239.242 144.369 239.641 143.96 240.148 143.96 C 240.401 143.96 240.63 144.064 240.795 144.231 L 248.985 152.422 C 249.339 152.775 249.339 153.349 248.985 153.703 C 248.808 153.88 248.576 153.969 248.344 153.969 L 240.148 153.969 Z M 232.699 162.809 L 244.371 162.809 L 244.371 164.169 L 232.699 164.169 L 232.699 162.809 Z M 236.908 159.589 L 238.126 159.975 C 237.939 160.655 237.629 161.16 237.194 161.491 C 236.76 161.82 236.207 161.986 235.538 161.986 C 234.711 161.986 234.031 161.703 233.498 161.139 C 232.966 160.573 232.699 159.799 232.699 158.82 C 232.699 157.783 232.967 156.978 233.503 156.403 C 234.038 155.83 234.742 155.543 235.615 155.543 C 236.377 155.543 236.996 155.768 237.472 156.219 C 237.756 156.484 237.968 156.867 238.11 157.366 L 236.864 157.664 C 236.792 157.34 236.638 157.085 236.403 156.898 C 236.169 156.711 235.885 156.618 235.551 156.618 C 235.09 156.618 234.714 156.783 234.427 157.115 C 234.14 157.446 233.996 157.983 233.996 158.726 C 233.996 159.514 234.137 160.075 234.421 160.409 C 234.704 160.744 235.072 160.911 235.525 160.911 C 235.86 160.911 236.147 160.805 236.388 160.592 C 236.629 160.38 236.802 160.045 236.908 159.589 Z M 240.796 161.88 L 238.569 155.649 L 239.934 155.649 L 241.51 160.261 L 243.036 155.649 L 244.371 155.649 L 242.139 161.88 L 240.796 161.88 Z" fill="#FFFFFE"/><g id="Capa_1" style="" transform="matrix(0.038634, 0, 0, 0.033788, 230.352973, 178.15862)"><g transform="matrix(1, 0, 0, 1, 191.854361, -78.733851)"><path style="fill:#29337A;" d="M41.712,102.641c-15.273,22.168-26.88,47.059-33.918,73.812h107.734L41.712,102.641z"/><path style="fill:#29337A;" d="M170.511,9.48c-27.288,7.947-52.56,20.628-74.814,37.168l74.814,74.814V9.48z"/><path style="fill:#29337A;" d="M101.261,430.982c20.874,14.607,44.195,25.915,69.25,33.211v-102.45L101.261,430.982z"/><path style="fill:#29337A;" d="M10.512,306.771c7.831,25.366,19.831,48.899,35.167,69.833l69.833-69.833H10.512z"/></g><g transform="matrix(1, 0, 0, 1, 191.854361, -78.733851)"><path style="fill:#FFFFFF;" d="M45.619,97.144c-1.324,1.81-2.629,3.646-3.908,5.501l73.816,73.812H7.793 c-1.746,6.645-3.171,13.418-4.345,20.284h141.776L45.619,97.144z"/><path style="fill:#FFFFFF;" d="M95.767,427.074c1.802,1.343,3.654,2.621,5.493,3.908l69.25-69.242v102.45 c6.653,1.945,13.41,3.624,20.284,4.974V332.05L95.767,427.074z"/><path style="fill:#FFFFFF;" d="M5.25,286.487c1.47,6.873,3.205,13.642,5.258,20.284h105.001l-69.833,69.833 c7.595,10.377,16.017,20.115,25.168,29.12L190.08,286.487H5.25L5.25,286.487z"/><path style="fill:#FFFFFF;" d="M170.511,9.48v111.982l-74.815-74.81c-10.314,7.67-19.955,16.185-28.888,25.403l123.983,123.983 V4.506C183.921,5.864,177.164,7.547,170.511,9.48z"/></g><g transform="matrix(1, 0, 0, 1, 191.854361, -78.733851)"><polygon style="fill:#D32030;" points="170.511,306.056 169.8,306.771 170.511,306.771 &#9;"/><polygon style="fill:#D32030;" points="190.084,286.487 190.794,286.487 190.794,285.773 &#9;"/><polygon style="fill:#D32030;" points="281.229,196.737 280.545,196.737 280.545,197.425 &#9;"/><polygon style="fill:#D32030;" points="171.21,176.457 170.511,175.754 170.511,176.457 &#9;"/><polygon style="fill:#D32030;" points="190.794,196.037 190.794,196.737 191.494,196.737 &#9;"/></g><g transform="matrix(1, 0, 0, 1, 191.854361, -78.733851)"><path style="fill:#252F6C;" d="M300.825,411.764v53.091c25.381-7.105,49.045-18.305,70.211-32.897l-57.526-57.526 C308.913,390.583,307.231,398.933,300.825,411.764z"/><path style="fill:#252F6C;" d="M313.812,108.471l62.799-62.799C354.05,29.15,328.456,16.559,300.824,8.818v54.538 C308.21,78.146,308.831,89.384,313.812,108.471z"/><path style="fill:#252F6C;" d="M427.029,377.984c15.815-21.275,28.141-45.29,36.147-71.213h-107.36L427.029,377.984z"/><path style="fill:#252F6C;" d="M465.887,176.457c-7.188-27.318-19.143-52.676-34.898-75.192l-75.2,75.192H465.887z"/></g><g transform="matrix(1, 0, 0, 1, 191.854361, -78.733851)"><path style="fill:#E7E7E7;" d="M327.638,290.5l16.275,16.275l77.903,77.903c1.769-2.214,3.526-4.42,5.217-6.69l-71.213-71.213 h107.36c2.046-6.638,3.784-13.41,5.25-20.284H329.16C328.932,289.367,327.911,287.643,327.638,290.5z"/><path style="fill:#E7E7E7;" d="M311.352,120.348l70.607-70.615c-1.769-1.372-3.541-2.737-5.348-4.061l-62.799,62.799 C314.463,110.954,310.746,117.805,311.352,120.348z"/><path style="fill:#E7E7E7;" d="M300.825,58.992V8.814c-6.645-1.862-13.41-3.44-20.284-4.727v24.476 C288.088,36.745,294.853,47.022,300.825,58.992z"/><path style="fill:#E7E7E7;" d="M326.041,196.737h144.195c-1.171-6.866-2.599-13.635-4.345-20.284H355.793l75.2-75.192 C423.6,90.7,415.384,80.768,406.409,71.565l-84.702,84.694C323.988,171.622,325.009,180.544,326.041,196.737z"/><path style="fill:#E7E7E7;" d="M310.088,371.002l60.952,60.959c10.138-6.982,19.685-14.753,28.593-23.189l-80.173-80.177 C316.901,343.423,313.865,357.745,310.088,371.002z"/><path style="fill:#E7E7E7;" d="M280.545,442.301v27.28c6.873-1.279,13.635-2.865,20.284-4.727v-53.091 C294.853,423.738,288.088,434.13,280.545,442.301z"/></g><path style="fill:#D71F28;" d="M 513.561 77.525 L 598.255 -7.169 C 590.63 -15 582.455 -22.288 573.809 -29.001 L 507.259 37.56 C 510.217 49.923 511.56 64.074 513.561 77.525 Z"/><g transform="matrix(1, 0, 0, 1, 191.854361, -78.733851)"><path style="fill:#D32030;" d="M225.019,0.292C228.965,0.101,232.899,0,236.836,0C232.876,0,228.935,0.101,225.019,0.292z"/><path style="fill:#D32030;" d="M236.836,473.68c-3.938,0-7.872-0.108-11.81-0.299C228.942,473.579,232.876,473.68,236.836,473.68z"/><path style="fill:#D32030;" d="M236.836,473.68c14.943,0,29.535-1.447,43.708-4.099v-27.28 C268.103,455.786,253.549,473.68,236.836,473.68z"/></g><g transform="matrix(1, 0, 0, 1, 191.854361, -78.733851)"><path style="fill:#D71F28;" d="M470.232,196.737H327.911c1.885,29.704,1.657,60.249-0.681,89.75h141.2 c3.418-16.017,5.25-32.613,5.25-49.643C473.68,223.164,472.461,209.784,470.232,196.737z"/><path style="fill:#D71F28;" d="M327.638,290.5c-1.316,13.994-5.901,24.898-8.182,38.099l80.173,80.173 c7.932-7.517,15.347-15.557,22.183-24.094l-77.9-77.907L327.638,290.5z"/></g><path style="fill:#D32030;" d="M 472.399 -48.41 L 472.399 -74.643 C 458.23 -77.287 443.638 -78.734 428.69 -78.734 C 445.403 -78.734 459.957 -61.891 472.399 -48.41 Z"/><g transform="matrix(1, 0, 0, 1, 191.854361, -78.733851)"><path style="fill:#29337A;" d="M300.825,422.007c6.406-12.834,11.899-27.609,16.499-43.757l-16.499-16.499V422.007z"/><path style="fill:#29337A;" d="M319.377,102.906c-4.989-19.087-11.166-36.439-18.552-51.229v69.773L319.377,102.906z"/></g><g transform="matrix(1, 0, 0, 1, 191.854361, -78.733851)"><path style="fill:#FFFFFF;" d="M332.234,295.092c0.269-2.857,0.512-5.725,0.744-8.605h-9.349L332.234,295.092z"/><path style="fill:#FFFFFF;" d="M300.825,121.451V51.674c-5.976-11.97-12.737-22.254-20.284-30.429v129.906l40.735-40.735 c-0.613-2.543-1.257-5.034-1.9-7.517L300.825,121.451z"/><path style="fill:#FFFFFF;" d="M281.229,196.737h52.429c-1.028-16.192-2.666-32.123-4.944-47.482L281.229,196.737z"/><path style="fill:#FFFFFF;" d="M280.545,452.432c7.547-8.182,14.308-18.459,20.284-30.429v-60.256l16.499,16.499 c3.784-13.264,6.959-27.434,9.525-42.261l-46.307-46.304L280.545,452.432L280.545,452.432z"/></g><path style="fill:#E51D35;" d="M 472.399 373.698 L 472.399 210.947 L 518.703 257.254 C 520.98 244.049 522.772 230.355 524.084 216.358 L 515.479 207.753 L 524.828 207.753 C 527.165 178.251 527.393 147.706 525.509 118.003 L 473.08 118.003 L 520.562 70.521 C 518.561 57.066 516.086 44.052 513.128 31.685 L 472.4 72.42 L 472.4 -57.486 C 459.957 -70.971 445.403 -78.734 428.69 -78.734 C 424.752 -78.734 420.818 -78.633 416.873 -78.442 C 405.224 -77.859 393.8 -76.426 382.648 -74.227 L 382.648 117.304 L 258.662 -6.679 C 251.044 1.182 243.958 9.558 237.473 18.41 L 316.786 97.723 L 337.077 118.007 L 195.302 118.007 C 193.081 131.05 191.854 144.43 191.854 158.11 C 191.854 175.144 193.694 191.736 197.104 207.753 L 381.938 207.753 L 262.701 326.99 C 270.509 334.66 278.822 341.803 287.622 348.339 L 382.645 253.316 L 382.645 390.432 C 393.796 392.631 405.228 394.063 416.877 394.647 C 420.815 394.838 424.749 394.946 428.687 394.946 C 445.403 394.946 459.957 387.183 472.399 373.698 Z"/></g></g></svg>