<?xml version="1.0" encoding="utf-8"?>
<svg xmlns="http://www.w3.org/2000/svg" viewBox="203.711 136.71 58 58" width="58px" height="58px"><g id="object-1" transform="matrix(0.9999999999999999, 0, 0, 0.9999999999999999, 0, -7.105427357601002e-15)"><g><g><path d="M 254.461 136.71 L 210.961 136.71 C 206.957 136.71 203.711 139.956 203.711 143.96 L 203.711 187.46 C 203.711 191.464 206.957 194.71 210.961 194.71 L 254.461 194.71 C 258.465 194.71 261.711 191.464 261.711 187.46 L 261.711 143.96 C 261.711 139.956 258.465 136.71 254.461 136.71 Z" fill="#39C1B4"/><path fill-rule="evenodd" clip-rule="evenodd" d="M 217.078 143.96 L 238.336 143.96 L 238.336 153.062 C 238.336 154.063 239.148 154.875 240.148 154.875 L 249.25 154.875 L 249.25 186.554 C 249.25 187.055 248.845 187.46 248.344 187.46 L 217.078 187.46 C 216.578 187.46 216.172 187.055 216.172 186.554 L 216.172 144.866 C 216.172 144.366 216.578 143.96 217.078 143.96 Z M 220.942 171.817 L 244.48 171.817 L 244.48 173.176 L 220.942 173.176 L 220.942 171.817 Z M 220.942 167.152 L 244.48 167.152 L 244.48 168.512 L 220.942 168.512 L 220.942 167.152 Z M 220.942 176.482 L 244.48 176.482 L 244.48 177.841 L 220.942 177.841 L 220.942 176.482 Z M 225.938 159.904 C 225.34 159.903 224.619 159.659 224.071 159.13 C 223.633 158.707 223.302 158.107 223.224 157.31 C 223.219 157.251 223.214 157.149 223.211 157.039 C 223.206 156.891 223.204 156.712 223.203 156.626 C 223.195 155.598 223.527 154.928 224.051 154.502 C 224.561 154.088 225.229 153.936 225.928 153.922 C 225.95 153.922 225.971 153.921 225.992 153.923 C 226.675 153.942 227.326 154.097 227.825 154.502 C 228.349 154.928 228.681 155.598 228.673 156.626 C 228.672 156.712 228.669 156.891 228.665 157.039 C 228.661 157.149 228.657 157.251 228.651 157.31 C 228.572 158.13 228.267 158.73 227.831 159.15 C 227.323 159.641 226.651 159.869 225.961 159.902 C 225.953 159.902 225.946 159.904 225.938 159.904 Z M 223.11 158.645 C 222.537 158.968 222.044 159.448 221.673 160.034 C 221.214 160.761 220.942 161.652 220.942 162.609 L 220.942 162.682 C 220.942 162.996 221.057 163.286 221.242 163.5 C 221.443 163.733 221.726 163.878 222.041 163.878 L 229.834 163.878 C 230.15 163.878 230.433 163.733 230.634 163.5 C 230.818 163.286 230.933 162.996 230.933 162.682 L 230.933 162.609 C 230.933 161.659 230.666 160.774 230.214 160.051 C 229.846 159.463 229.355 158.981 228.784 158.655 C 228.632 158.965 228.43 159.251 228.17 159.501 C 226.618 160.999 224.079 160.521 223.11 158.645 Z M 240.148 153.969 C 239.648 153.969 239.242 153.563 239.242 153.062 L 239.242 144.874 C 239.242 144.369 239.641 143.96 240.148 143.96 C 240.401 143.96 240.63 144.064 240.795 144.231 L 248.985 152.422 C 249.339 152.775 249.339 153.349 248.985 153.703 C 248.808 153.88 248.576 153.969 248.344 153.969 L 240.148 153.969 Z M 232.699 162.809 L 244.371 162.809 L 244.371 164.169 L 232.699 164.169 L 232.699 162.809 Z M 236.908 159.589 L 238.126 159.975 C 237.939 160.655 237.629 161.16 237.194 161.491 C 236.76 161.82 236.207 161.986 235.538 161.986 C 234.711 161.986 234.031 161.703 233.498 161.139 C 232.966 160.573 232.699 159.799 232.699 158.82 C 232.699 157.783 232.967 156.978 233.503 156.403 C 234.038 155.83 234.742 155.543 235.615 155.543 C 236.377 155.543 236.996 155.768 237.472 156.219 C 237.756 156.484 237.968 156.867 238.11 157.366 L 236.864 157.664 C 236.792 157.34 236.638 157.085 236.403 156.898 C 236.169 156.711 235.885 156.618 235.551 156.618 C 235.09 156.618 234.714 156.783 234.427 157.115 C 234.14 157.446 233.996 157.983 233.996 158.726 C 233.996 159.514 234.137 160.075 234.421 160.409 C 234.704 160.744 235.072 160.911 235.525 160.911 C 235.86 160.911 236.147 160.805 236.388 160.592 C 236.629 160.38 236.802 160.045 236.908 159.589 Z M 240.796 161.88 L 238.569 155.649 L 239.934 155.649 L 241.51 160.261 L 243.036 155.649 L 244.371 155.649 L 242.139 161.88 L 240.796 161.88 Z" fill="#FFFFFE"/><g id="Capa_1" transform="matrix(0.037406, 0, 0, 0.036801, 230.26786, 177.167608)" style=""><g transform="matrix(1, 0, 0, 1, 208.213187, -29.662927)"><path style="fill:#C42126;" d="M236.836,473.673c75.779,0,143.185-35.619,186.534-90.991H298.632 C282.529,436.36,273.542,473.673,236.836,473.673z"/><path style="fill:#C42126;" d="M222.79,473.265c-0.045,0-0.086-0.007-0.131-0.007C222.704,473.258,222.749,473.265,222.79,473.265z "/><path style="fill:#C42126;" d="M298.632,90.991h124.741C380.02,35.627,312.613,0,236.836,0 C273.542,0,282.529,37.313,298.632,90.991z"/><path style="fill:#C42126;" d="M222.659,0.423c0.045,0,0.086-0.007,0.131-0.007C222.749,0.415,222.704,0.415,222.659,0.423z"/></g><path style="fill:#FFC40C;" d="M 631.589 61.328 L 506.845 61.328 C 532.02 145.237 532.02 269.121 506.845 353.018 L 631.578 353.018 C 663.065 312.81 681.886 262.21 681.886 207.175 C 681.89 152.144 663.068 101.54 631.589 61.328 Z"/><g transform="matrix(1, 0, 0, 1, 208.213187, -29.662927)"><path style="fill:#C42126;" d="M236.836,473.673c-4.712,0-9.394-0.138-14.046-0.408 C227.508,473.527,232.199,473.673,236.836,473.673z"/><path style="fill:#C42126;" d="M222.79,0.415C227.441,0.138,232.124,0,236.836,0C232.199,0,227.508,0.153,222.79,0.415z"/></g><g transform="matrix(1, 0, 0, 1, 208.213187, -29.662927)"><path style="fill:#D32030;" d="M316.053,382.682H50.309c40.623,51.894,102.386,86.44,172.349,90.576 c0.045,0,0.086,0.007,0.131,0.007c4.652,0.269,9.334,0.408,14.046,0.408C273.542,473.673,299.947,436.36,316.053,382.682z"/><path style="fill:#D32030;" d="M50.309,90.991h265.745C299.947,37.313,273.542,0,236.836,0c-4.712,0-9.394,0.138-14.046,0.415 c-0.045,0-0.086,0.007-0.131,0.007C152.695,4.555,90.932,39.105,50.309,90.991z"/></g><path style="fill:#FFD034;" d="M 208.214 207.175 C 208.214 262.21 227.035 312.81 258.522 353.018 L 524.267 353.018 C 549.442 269.117 549.442 145.232 524.267 61.328 L 258.522 61.328 C 227.035 101.54 208.214 152.144 208.214 207.175 Z"/></g></g></g></g></svg>