<svg width="48" height="48" viewBox="0 0 48 48" fill="none" xmlns="http://www.w3.org/2000/svg">
<g clip-path="url(#clip0_2_19)">
<path fill-rule="evenodd" clip-rule="evenodd" d="M28.006 34.46C27.65 34.954 25.094 36.304 25.082 33.668V32.74C25.942 32.324 26.544 31.472 26.544 30.71C26.544 29.658 25.402 29.186 24 29.186C22.598 29.186 21.458 29.658 21.458 30.71C21.458 31.464 22.046 32.302 22.892 32.724V33.668C22.876 36.122 20.532 35.326 20.108 34.574C19.3 33.142 17.61 34.268 18.228 35.42C18.808 36.502 20.23 37.256 21.688 37.256C22.58 37.256 23.384 36.964 23.986 36.424C24.59 36.964 25.392 37.256 26.286 37.256C27.74 37.256 29.164 36.502 29.744 35.42C30.376 34.252 28.91 33.21 28.006 34.46ZM30 23C29.082 23 28.334 23.748 28.334 24.668C28.334 25.586 29.082 26.334 30 26.334C30.918 26.334 31.666 25.586 31.666 24.668C31.666 23.748 30.918 23 30 23ZM30 28.334C27.978 28.334 26.334 26.688 26.334 24.668C26.334 22.644 27.978 21 30 21C32.022 21 33.666 22.644 33.666 24.668C33.666 26.688 32.022 28.334 30 28.334ZM18 23C17.082 23 16.334 23.748 16.334 24.668C16.334 25.586 17.082 26.334 18 26.334C18.92 26.334 19.668 25.586 19.668 24.668C19.668 23.748 18.92 23 18 23ZM18 28.334C15.978 28.334 14.334 26.688 14.334 24.668C14.334 22.644 15.978 21 18 21C20.022 21 21.668 22.644 21.668 24.668C21.668 26.688 20.022 28.334 18 28.334ZM21.09 17.014C22.634 16.624 25.292 16.618 26.908 17.014C28.862 14.058 30.194 12.418 32.968 10C38.368 16.602 40.492 28.19 41.36 37.464C37.33 42.646 31.056 46 24 46C16.88 46 10.558 42.584 6.534 37.322C7.228 27.886 9.008 16.086 14 10C16.938 12.32 18.852 14.3 21.09 17.014ZM24 0C10.754 0 0 10.752 0 24C0 37.246 10.754 48 24 48C37.246 48 48 37.246 48 24C48 10.752 37.246 0 24 0Z" fill="black"/>
</g>
<defs>
<clipPath id="clip0_2_19">
<rect width="48" height="48" fill="white"/>
</clipPath>
</defs>
</svg>
