<svg width="58" height="58" viewBox="0 0 58 58" fill="none" xmlns="http://www.w3.org/2000/svg">
<path d="M50.75 0H7.25002C3.24594 0 0 3.24594 0 7.25002V50.75C0 54.754 3.24594 58 7.25002 58H50.75C54.754 58 58 54.754 58 50.75V7.25002C58 3.24594 54.754 0 50.75 0Z" fill="#39C1B4"/>
<path fill-rule="evenodd" clip-rule="evenodd" d="M13.3672 7.24997H34.6245V16.352C34.6245 17.3527 35.4364 18.1645 36.437 18.1645H45.5391V49.8438C45.5391 50.3443 45.1333 50.75 44.6328 50.75H13.3671C12.8666 50.75 12.4609 50.3443 12.4609 49.8438V8.15621C12.4609 7.65571 12.8667 7.24997 13.3672 7.24997ZM17.2312 35.1067H40.7687V36.466H17.2312V35.1067ZM17.2312 30.442H40.7687V31.8013H17.2312V30.442ZM17.2312 39.7714H40.7687V41.1307H17.2312V39.7714ZM22.2266 23.1935C21.6286 23.1927 20.9078 22.9484 20.3594 22.4193C19.9215 21.9968 19.5903 21.3966 19.5132 20.6002C19.5075 20.5412 19.503 20.439 19.4997 20.3285C19.4952 20.1809 19.4925 20.0018 19.4919 19.9156C19.4839 18.8882 19.8156 18.2179 20.3396 17.7922C20.8496 17.3778 21.5176 17.2255 22.217 17.2117C22.2386 17.2113 22.2598 17.2105 22.2807 17.2128C22.964 17.2321 23.6145 17.3866 24.1136 17.7922C24.6376 18.2179 24.9693 18.8882 24.9613 19.9156C24.9607 20.0018 24.958 20.1809 24.9535 20.3285C24.9502 20.439 24.9457 20.5412 24.94 20.6002C24.8607 21.4193 24.5555 22.02 24.1202 22.44C23.6119 22.9305 22.9397 23.1584 22.2499 23.1916C22.2421 23.1919 22.2344 23.1935 22.2266 23.1935ZM19.3983 21.9347C18.8257 22.2579 18.3326 22.7376 17.9622 23.3239C17.503 24.0505 17.2312 24.9417 17.2312 25.8992V25.9713C17.2312 26.2855 17.346 26.5757 17.5308 26.79C17.7317 27.0231 18.0143 27.1679 18.3301 27.1679H26.1231C26.4389 27.1679 26.7215 27.0231 26.9224 26.79C27.1072 26.5757 27.222 26.2855 27.222 25.9713V25.8992C27.222 24.9483 26.9546 24.0637 26.5024 23.341C26.1344 22.7528 25.6435 22.2708 25.0729 21.9446C24.9209 22.2546 24.7186 22.5403 24.4588 22.791C22.9065 24.2889 20.3678 23.8108 19.3983 21.9347ZM36.437 17.2583C35.9365 17.2583 35.5308 16.8525 35.5308 16.352V8.16371C35.5308 7.6589 35.9302 7.25002 36.437 7.25002C36.6901 7.25002 36.9189 7.35381 37.0834 7.52112L45.2735 15.7113C45.6274 16.0652 45.6275 16.639 45.2736 16.9929C45.0967 17.1698 44.8647 17.2583 44.6328 17.2583L36.437 17.2583ZM28.9877 26.099H40.6594V27.4584H28.9877V26.099ZM33.1965 22.8788L34.4152 23.2647C34.228 23.9452 33.9175 24.45 33.4823 24.7808C33.0485 25.1101 32.4957 25.2755 31.8269 25.2755C31 25.2755 30.3195 24.9926 29.7871 24.4283C29.2546 23.8625 28.9877 23.0892 28.9877 22.1099C28.9877 21.0726 29.2561 20.2674 29.7915 19.6929C30.3268 19.1198 31.0304 18.8325 31.9038 18.8325C32.6655 18.8325 33.285 19.0574 33.7608 19.5086C34.0452 19.7741 34.257 20.1571 34.3992 20.6562L33.153 20.9536C33.0804 20.63 32.9266 20.3747 32.6916 20.1876C32.458 20.0004 32.1737 19.9076 31.84 19.9076C31.3786 19.9076 31.0029 20.073 30.7156 20.4052C30.4283 20.736 30.2847 21.2728 30.2847 22.0156C30.2847 22.8034 30.4255 23.3648 30.7098 23.6985C30.9927 24.0337 31.3612 24.2005 31.8139 24.2005C32.149 24.2005 32.4362 24.0946 32.6771 23.8813C32.9179 23.6695 33.0906 23.3343 33.1965 22.8788ZM37.0846 25.1696L34.8577 18.9385H36.2229L37.7984 23.5505L39.3247 18.9385H40.6594L38.4281 25.1696H37.0846Z" fill="#FFFFFE"/>
</svg>
